<?xml version="1.0" standalone="no"?>
<!DOCTYPE svg PUBLIC "-//W3C//DTD SVG 20010904//EN"
 "http://www.w3.org/TR/2001/REC-SVG-20010904/DTD/svg10.dtd">
<svg version="1.0" xmlns="http://www.w3.org/2000/svg"
 width="1032.000000pt" height="1032.000000pt" viewBox="0 0 1032.000000 1032.000000"
 preserveAspectRatio="xMidYMid meet">
<metadata>
Created by potrace 1.11, written by Peter Selinger 2001-2013
</metadata>
<g transform="translate(0.000000,1032.000000) scale(0.100000,-0.100000)"
fill="#000000" stroke="none">
<path d="M2548 9864 c-2 -1 -37 -5 -78 -8 -72 -6 -108 -11 -167 -20 -16 -3
-42 -7 -60 -10 -85 -13 -332 -82 -403 -113 -8 -3 -18 -7 -22 -8 -5 -2 -10 -4
-13 -5 -3 -1 -8 -3 -12 -5 -40 -11 -264 -121 -338 -166 -27 -16 -58 -32 -67
-36 -10 -3 -18 -9 -18 -14 0 -6 -8 -13 -17 -17 -31 -12 -133 -84 -133 -93 0
-5 -4 -9 -10 -9 -5 0 -20 -8 -32 -17 -168 -136 -334 -300 -451 -448 -26 -33
-55 -68 -64 -79 -27 -33 -170 -250 -188 -286 -10 -19 -21 -37 -24 -40 -10 -9
-118 -221 -146 -290 -15 -36 -36 -84 -46 -107 -10 -23 -19 -44 -19 -47 0 -2
-5 -17 -12 -33 -6 -15 -12 -30 -13 -33 -1 -3 -14 -43 -29 -90 -45 -136 -66
-209 -87 -305 -11 -49 -21 -97 -24 -106 -3 -17 -11 -59 -21 -126 -3 -21 -7
-49 -10 -63 -4 -24 -7 -48 -18 -150 -3 -25 -8 -67 -12 -95 -9 -61 -9 -316 -1
-405 13 -136 22 -217 30 -260 11 -55 21 -126 20 -142 0 -10 4 -18 9 -18 5 0 6
-4 3 -10 -3 -5 -3 -16 1 -22 5 -7 9 -19 10 -28 6 -52 65 -295 84 -345 5 -14 7
-25 4 -25 -4 0 -2 -6 3 -12 8 -10 25 -64 24 -75 0 -8 37 -104 42 -110 4 -3 7
-12 7 -18 0 -7 8 -30 17 -51 9 -22 18 -46 19 -54 2 -8 7 -23 13 -35 8 -18 22
-52 26 -65 1 -3 10 -23 20 -45 10 -22 19 -42 19 -45 7 -33 197 -404 215 -420
4 -3 7 -11 9 -18 5 -26 242 -390 301 -462 11 -14 49 -61 83 -105 34 -44 67
-85 72 -92 6 -6 29 -33 51 -59 140 -169 346 -370 715 -700 30 -27 64 -58 75
-69 12 -11 66 -60 121 -110 54 -49 117 -106 139 -126 41 -38 51 -47 175 -159
40 -36 85 -76 100 -90 15 -14 64 -59 110 -100 100 -91 116 -105 216 -197 44
-39 88 -80 100 -90 12 -10 63 -56 114 -103 51 -47 102 -94 114 -105 13 -11 58
-51 100 -90 43 -38 108 -97 145 -131 36 -34 120 -110 186 -169 200 -180 339
-307 435 -395 15 -14 60 -54 100 -90 40 -36 94 -86 122 -111 27 -26 76 -70
110 -100 33 -29 78 -69 98 -89 34 -31 146 -133 204 -185 13 -11 62 -56 111
-100 48 -44 95 -87 105 -95 33 -28 205 -185 228 -207 12 -13 25 -23 28 -23 3
0 15 -12 27 -26 l22 -26 45 39 c24 21 51 45 60 53 9 8 56 51 106 95 112 99
129 115 180 162 22 21 54 49 71 63 35 29 148 130 203 180 20 19 68 62 106 95
68 59 164 145 174 155 3 3 43 39 90 80 46 41 90 80 96 85 46 41 162 145 190
170 18 17 54 48 79 70 25 22 70 63 100 90 46 43 91 83 189 168 12 10 35 31 53
47 37 34 210 188 301 269 35 31 78 70 96 86 18 17 58 53 90 80 31 28 72 64 90
80 18 17 63 57 101 90 37 33 83 74 100 90 18 17 56 50 85 75 29 25 67 59 84
75 18 17 66 59 106 95 41 36 88 79 105 95 17 17 47 42 66 57 18 15 60 52 93
82 32 31 60 56 62 56 2 0 19 15 38 32 19 18 62 58 96 88 34 30 72 64 84 75 13
11 51 45 85 75 67 60 88 78 211 190 144 130 332 322 432 441 20 24 44 54 55
66 10 12 29 36 43 54 14 18 30 37 35 43 6 6 28 36 50 66 50 69 56 77 78 101 9
10 14 19 10 19 -5 0 -3 4 2 8 6 4 24 27 40 52 17 25 35 51 42 58 6 6 15 21 18
32 3 11 11 20 16 20 5 0 9 5 9 12 0 13 49 89 65 100 5 4 6 8 2 8 -5 0 1 13 12
29 12 16 21 34 21 40 0 6 4 11 8 11 4 0 15 15 24 33 8 17 41 79 72 137 58 109
79 155 76 166 -1 4 3 10 8 13 31 19 232 563 268 722 2 11 6 28 8 39 3 11 7 24
10 28 3 5 8 22 10 38 3 16 8 40 11 54 3 14 8 39 11 55 3 17 10 48 15 70 12 48
14 59 34 195 38 260 46 528 21 710 -2 19 -7 62 -11 95 -3 33 -8 67 -10 75 -2
8 -6 33 -9 55 -3 22 -10 65 -16 95 -6 30 -13 71 -16 90 -8 45 -10 52 -17 70
-4 8 -9 29 -11 45 -2 17 -6 37 -9 45 -3 8 -15 50 -27 92 -24 88 -98 303 -130
374 -51 116 -125 270 -137 285 -7 8 -13 19 -13 23 0 11 -122 211 -132 214 -4
2 -8 9 -8 16 0 7 -9 21 -20 31 -11 10 -20 24 -20 32 0 7 -4 13 -10 13 -5 0
-10 7 -10 15 0 8 -3 15 -7 15 -5 0 -19 17 -33 37 -26 40 -60 82 -97 120 -12
13 -20 23 -17 23 6 0 -59 70 -152 163 -319 323 -712 551 -1144 665 -110 29
-227 51 -292 55 -16 1 -28 4 -28 7 0 19 -518 15 -630 -4 -14 -3 -47 -7 -74
-11 -112 -14 -408 -88 -433 -108 -7 -5 -13 -6 -13 -2 0 4 -6 3 -13 -3 -7 -6
-24 -13 -38 -15 -26 -5 -281 -115 -289 -126 -3 -3 -32 -19 -65 -36 -33 -16
-114 -66 -179 -110 -65 -44 -126 -84 -134 -90 -29 -18 -32 -20 -137 -108 -95
-80 -301 -293 -365 -377 -78 -103 -111 -146 -120 -157 -5 -7 -10 -17 -10 -23
0 -5 -5 -10 -11 -10 -5 0 -8 -4 -5 -9 3 -4 -3 -16 -14 -26 -11 -10 -20 -23
-20 -28 0 -6 -7 -18 -15 -27 -20 -22 -63 -102 -136 -250 l-62 -125 -21 45
c-80 173 -105 220 -119 231 -5 3 -8 9 -7 13 2 9 -60 116 -106 181 -11 17 -23
38 -27 48 -3 9 -11 17 -17 17 -5 0 -10 4 -10 10 0 10 -110 160 -145 197 -11
11 -40 44 -65 73 -60 68 -136 145 -200 200 -29 25 -62 54 -74 66 -11 11 -48
40 -81 65 -33 24 -61 47 -63 52 -2 4 -10 7 -18 7 -8 0 -14 5 -14 10 0 6 -7 10
-15 10 -8 0 -15 4 -15 9 0 5 -9 13 -20 16 -11 3 -26 12 -32 19 -46 45 -349
194 -498 245 -52 18 -102 36 -110 39 -8 3 -19 6 -25 7 -5 2 -46 12 -90 24 -44
12 -93 23 -110 25 -16 2 -37 6 -45 9 -8 4 -33 9 -55 11 -22 3 -40 5 -40 6 0 1
-20 4 -45 5 -25 2 -67 6 -95 10 -47 7 -382 15 -387 9z"/>
</g>
</svg>
