<?xml version="1.0" encoding="utf-8"?>
<!-- Generator: Adobe Illustrator 22.0.0, SVG Export Plug-In . SVG Version: 6.00 Build 0)  -->
<svg version="1.1" id="Capa_1" xmlns="http://www.w3.org/2000/svg" xmlns:xlink="http://www.w3.org/1999/xlink" x="0px" y="0px"
	 viewBox="0 0 515.6 474.1" style="enable-background:new 0 0 515.6 474.1;" xml:space="preserve">
<style type="text/css">
	.st0{fill:url(#SVGID_1_);}
	.st1{fill:#334251;}
	.st2{fill:url(#SVGID_2_);}
	.st3{fill:url(#SVGID_3_);}
	.st4{fill:url(#SVGID_4_);}
	.st5{fill:#EBEBEB;}
</style>
<g>
	<linearGradient id="SVGID_1_" gradientUnits="userSpaceOnUse" x1="480.386" y1="331.9724" x2="72.6202" y2="67.1662">
		<stop  offset="0.5" style="stop-color:#334251"/>
		<stop  offset="0.5" style="stop-color:#425568"/>
		<stop  offset="0.6568" style="stop-color:#425568"/>
	</linearGradient>
	<path class="st0" d="M254.7,84.8c20.7-49,67.9-83.2,122.8-83.2c74,0,127.2,63.3,133.9,138.7c0,0,3.6,18.7-4.3,52.4
		c-10.8,45.9-36.3,86.7-70.6,117.8L254.7,472.6L76,310.5c-34.3-31.1-59.8-71.9-70.6-117.8C-2.6,159,1,140.3,1,140.3
		C7.7,64.9,61,1.6,135,1.6C189.9,1.6,234,35.8,254.7,84.8z"/>
	<path class="st1" d="M61.7,166.2c-5.7,0-10.2-4.6-10.2-10.2c0-56.5,45.9-102.4,102.4-102.4c5.7,0,10.2,4.6,10.2,10.2
		s-4.6,10.2-10.2,10.2c-45.2,0-81.9,36.8-81.9,81.9C71.9,161.7,67.3,166.2,61.7,166.2z"/>
</g>
<g>
	<g>
		<linearGradient id="SVGID_2_" gradientUnits="userSpaceOnUse" x1="79.883" y1="199.0295" x2="559.8547" y2="199.0295">
			<stop  offset="0.5" style="stop-color:#334251"/>
			<stop  offset="0.5" style="stop-color:#425568"/>
			<stop  offset="0.6568" style="stop-color:#425568"/>
		</linearGradient>
		<path class="st2" d="M181.7,152.6v0.8l-0.8,1.7h0.8c1.4,0,3.9-0.8,7.6-2.5l0.8,1.7c-1.1,0.2-1.7,0.8-1.7,1.8
			c0.6,1.1,0.8,1.9,0.8,2.5c-6.6,4.8-23.8,14.1-51.6,27.8v0.9h1.8l29.5-14.4v1.7c-3.9,1.4-10.1,5.4-18.6,11.8
			c-11.6,5.1-19.2,9.6-22.8,13.5l41.4,19.5l16,8.4v0.8c0,1.1-1.7,1.7-5,1.7c4.5,3.8,6.8,6.1,6.8,6.8c-0.6,0-0.9,0.3-0.9,0.8
			c2.8,2.5,4.3,4.7,4.3,6.8l-1.7,0.8h-1.7c-2.2-1.7-3.9-2.5-5.1-2.5c0,1.1-0.6,1.7-1.7,1.7h-0.8c-24.4-13-48.9-24.6-73.6-34.7
			c-10.6-4.3-16.2-7.4-16.9-9.3v-0.8c1.7-2.9,20.3-13.3,55.8-31.3C166.3,157.9,178.7,152.6,181.7,152.6z M176.6,169.4
			c0,0.8-1.4,1.9-4.2,3.4h-0.8V172C172.1,170.3,173.8,169.4,176.6,169.4z"/>
		<linearGradient id="SVGID_3_" gradientUnits="userSpaceOnUse" x1="79.883" y1="217.4451" x2="559.8547" y2="217.4451">
			<stop  offset="0.5" style="stop-color:#334251"/>
			<stop  offset="0.5" style="stop-color:#425568"/>
			<stop  offset="0.6568" style="stop-color:#425568"/>
		</linearGradient>
		<path class="st3" d="M318.6,118.9h1.4c1,0.1,1.5,0.6,1.5,1.4l-0.7,8.5c0.9,0.1,1.4,0.6,1.4,1.4c1,0,3.4-0.7,7.1-2.1
			c0,0.5,0.2,0.7,0.6,0.7l-0.6,1.4l2.1,3.6c0,1.4-8.8,14.2-26.3,38.2c-33.2,46-64.4,93.9-93.6,144h-2.1v-0.7c0-0.4,0.2-2.3,0.7-5.7
			l-0.7-1.4c0.5-0.8,0.7-1.8,0.7-2.9c-2,0-5.1,1.9-9.3,5.7h-0.6v-0.6l2.8-4.3v-0.7l-0.6-1.4c1.4,0,2.5-1,3.5-2.9h-1.4
			c-2.2,2.4-3.9,3.6-5,3.6V304l4.3-11.3c-1.9-0.7-2.9-1.5-2.9-2.1c12.7-18.4,32.1-48.7,58.2-90.8l22.7-33.3
			c14.5-23.1,23.2-34.7,26.3-34.7l-0.7-1.5v-1.4C311.9,122.2,315.7,118.9,318.6,118.9z M204.5,289.8v0.7h0.6c0.6-1.9,2-4.3,4.3-7.1
			h-0.7C207.8,283.5,206.5,285.6,204.5,289.8z M205.1,299.7h2.1v-1.4h-0.7C205.6,298.4,205.1,298.9,205.1,299.7z M215.1,272.8
			c0,0.5-0.2,1.2-0.6,2.1v0.6h0.6c0-0.5,0.2-1.2,0.7-2.1v-0.6H215.1z M228.5,274.2c-8.5,13.7-12.7,21.3-12.7,22.7h0.6
			c9-12.4,13.5-19.7,13.5-22v-0.7H228.5z M230,273.4h0.6c1,0,1.5-0.5,1.5-1.4v-0.7C231.4,271.3,230.7,272,230,273.4z M271.8,198.3
			v1.4c0.6,0,1.8-1.2,3.5-3.5v-1.4C274.7,194.8,273.6,195.9,271.8,198.3z M276.7,193.4c5.7-6.5,9.7-12.4,12.1-17.7h1.4v-2.1
			c-2.7,1.9-6.2,6.6-10.6,14.1C278.4,187.6,277.4,189.5,276.7,193.4z"/>
		<linearGradient id="SVGID_4_" gradientUnits="userSpaceOnUse" x1="79.883" y1="199.4934" x2="559.8547" y2="199.4934">
			<stop  offset="0.5" style="stop-color:#334251"/>
			<stop  offset="0.5" style="stop-color:#425568"/>
			<stop  offset="0.6568" style="stop-color:#425568"/>
		</linearGradient>
		<path class="st4" d="M335.9,239.6h2.6c0,1.2-0.6,1.8-1.8,1.8h-0.8V239.6z M348.8,151.6c24.7,10.1,54.6,25,89.7,44.9
			c2.4,0.7,4.1,2.2,5.2,4.3v0.8c-4.5,4.2-12.9,8.2-25,12.1c-35.4,16.5-57.9,27.5-67.3,32.8h-2.6c0-1.2-0.3-1.8-0.8-1.8l-4.3,2.6H342
			c-1.2,0-1.8-0.6-1.8-1.8v-0.8c2.9-5.8,6.1-10,9.6-12.9c-3.5,0-5.2-0.6-5.2-1.8v-0.8c10.5-5.8,30-15.2,58.6-28.5V200
			c-3.2-2.7-13.3-8.4-30.2-17.3c0-0.6-4.3-3.8-13-9.5h0.9c1.9,0,10.8,4.3,26.7,12.9c1,0,2.4,0.6,4.3,1.8h0.9V187
			c-27.4-13.5-45-23-52.7-28.4v-0.9l1.8-2.6c-1.2,0-1.8-0.6-1.8-1.7v-0.9l8.6,2.6V151.6z M351.4,168h0.9c5,2.3,7.6,4,7.7,5.2h-2.6
			c-4-2.3-6-3.8-6-4.4V168z"/>
	</g>
	<g>
		<path class="st5" d="M181.7,152.6v0.8l-0.8,1.7h0.8c1.4,0,3.9-0.8,7.6-2.5l0.8,1.7c-1.1,0.2-1.7,0.8-1.7,1.8
			c0.6,1.1,0.8,1.9,0.8,2.5c-6.6,4.8-23.8,14.1-51.6,27.8v0.9h1.8l29.5-14.4v1.7c-3.9,1.4-10.1,5.4-18.6,11.8
			c-11.6,5.1-19.2,9.6-22.8,13.5l41.4,19.5l16,8.4v0.8c0,1.1-1.7,1.7-5,1.7c4.5,3.8,6.8,6.1,6.8,6.8c-0.6,0-0.9,0.3-0.9,0.8
			c2.8,2.5,4.3,4.7,4.3,6.8l-1.7,0.8h-1.7c-2.2-1.7-3.9-2.5-5.1-2.5c0,1.1-0.6,1.7-1.7,1.7h-0.8c-24.4-13-48.9-24.6-73.6-34.7
			c-10.6-4.3-16.2-7.4-16.9-9.3v-0.8c1.7-2.9,20.3-13.3,55.8-31.3C166.3,157.9,178.7,152.6,181.7,152.6z M176.6,169.4
			c0,0.8-1.4,1.9-4.2,3.4h-0.8V172C172.1,170.3,173.8,169.4,176.6,169.4z"/>
		<path class="st5" d="M318.6,118.9h1.4c1,0.1,1.5,0.6,1.5,1.4l-0.7,8.5c0.9,0.1,1.4,0.6,1.4,1.4c1,0,3.4-0.7,7.1-2.1
			c0,0.5,0.2,0.7,0.6,0.7l-0.6,1.4l2.1,3.6c0,1.4-8.8,14.2-26.3,38.2c-33.2,46-64.4,93.9-93.6,144h-2.1v-0.7c0-0.4,0.2-2.3,0.7-5.7
			l-0.7-1.4c0.5-0.8,0.7-1.8,0.7-2.9c-2,0-5.1,1.9-9.3,5.7h-0.6v-0.6l2.8-4.3v-0.7l-0.6-1.4c1.4,0,2.5-1,3.5-2.9h-1.4
			c-2.2,2.4-3.9,3.6-5,3.6V304l4.3-11.3c-1.9-0.7-2.9-1.5-2.9-2.1c12.7-18.4,32.1-48.7,58.2-90.8l22.7-33.3
			c14.5-23.1,23.2-34.7,26.3-34.7l-0.7-1.5v-1.4C311.9,122.2,315.7,118.9,318.6,118.9z M204.5,289.8v0.7h0.6c0.6-1.9,2-4.3,4.3-7.1
			h-0.7C207.8,283.5,206.5,285.6,204.5,289.8z M205.1,299.7h2.1v-1.4h-0.7C205.6,298.4,205.1,298.9,205.1,299.7z M215.1,272.8
			c0,0.5-0.2,1.2-0.6,2.1v0.6h0.6c0-0.5,0.2-1.2,0.7-2.1v-0.6H215.1z M228.5,274.2c-8.5,13.7-12.7,21.3-12.7,22.7h0.6
			c9-12.4,13.5-19.7,13.5-22v-0.7H228.5z M230,273.4h0.6c1,0,1.5-0.5,1.5-1.4v-0.7C231.4,271.3,230.7,272,230,273.4z M271.8,198.3
			v1.4c0.6,0,1.8-1.2,3.5-3.5v-1.4C274.7,194.8,273.6,195.9,271.8,198.3z M276.7,193.4c5.7-6.5,9.7-12.4,12.1-17.7h1.4v-2.1
			c-2.7,1.9-6.2,6.6-10.6,14.1C278.4,187.6,277.4,189.5,276.7,193.4z"/>
		<path class="st5" d="M335.9,239.6h2.6c0,1.2-0.6,1.8-1.8,1.8h-0.8V239.6z M348.8,151.6c24.7,10.1,54.6,25,89.7,44.9
			c2.4,0.7,4.1,2.2,5.2,4.3v0.8c-4.5,4.2-12.9,8.2-25,12.1c-35.4,16.5-57.9,27.5-67.3,32.8h-2.6c0-1.2-0.3-1.8-0.8-1.8l-4.3,2.6H342
			c-1.2,0-1.8-0.6-1.8-1.8v-0.8c2.9-5.8,6.1-10,9.6-12.9c-3.5,0-5.2-0.6-5.2-1.8v-0.8c10.5-5.8,30-15.2,58.6-28.5V200
			c-3.2-2.7-13.3-8.4-30.2-17.3c0-0.6-4.3-3.8-13-9.5h0.9c1.9,0,10.8,4.3,26.7,12.9c1,0,2.4,0.6,4.3,1.8h0.9V187
			c-27.4-13.5-45-23-52.7-28.4v-0.9l1.8-2.6c-1.2,0-1.8-0.6-1.8-1.7v-0.9l8.6,2.6V151.6z M351.4,168h0.9c5,2.3,7.6,4,7.7,5.2h-2.6
			c-4-2.3-6-3.8-6-4.4V168z"/>
	</g>
</g>
</svg>
