<?xml version="1.0" encoding="utf-8"?>
<!-- Generator: Adobe Illustrator 22.0.0, SVG Export Plug-In . SVG Version: 6.00 Build 0)  -->
<svg version="1.1" id="Capa_1" xmlns="http://www.w3.org/2000/svg" xmlns:xlink="http://www.w3.org/1999/xlink" x="0px" y="0px"
	 viewBox="0 0 513.2 474.1" style="enable-background:new 0 0 513.2 474.1;" xml:space="preserve">
<style type="text/css">
	.st0{fill:#334251;}
	.st1{fill:#425568;}
	.st2{fill:#EBEBEB;}
</style>
<g>
	<g>
		<path id="bottom" class="st0 lang-color-secondary" d="M511.8,139.3c-6-67-48.7-124.4-110-136.4l-246,378.6c0.2,0.2,0.4,0.3,0.5,0.5c32.9,29.9,65.9,59.8,98.8,89.6
			l181.7-162.1c34.3-31.1,59.8-71.9,70.6-117.8C515.4,158,511.8,139.3,511.8,139.3z"/>
		<path id="top" class="st1 lang-color-primary" d="M379,1.5c-54.9,0-102.1,34.2-122.8,83.2c-20.7-49-64.8-83.2-119.7-83.2C62.6,1.5,9.3,64.8,2.6,140.2
			c0,0-3.6,18.7,4.3,52.4c5.8,24.5,17,62.8,70.6,117.8c26.5,24,52.9,48,79.4,72l246-378.6C395.2,2.3,387.3,1.5,379,1.5z"/>
	</g>
	<path id="curve" class="st0 lang-color-secondary" d="M63.2,166.2c-5.7,0-10.2-4.6-10.2-10.2C53,99.5,98.9,53.5,155.4,53.5c5.7,0,10.2,4.6,10.2,10.2
		S161.1,74,155.4,74c-45.2,0-81.9,36.8-81.9,81.9C73.5,161.6,68.9,166.2,63.2,166.2z"/>
</g>
<g>
	<g>
		<path id="text" class="st2" d="M181.7,152.6v0.8l-0.8,1.7h0.8c1.4,0,3.9-0.8,7.6-2.5l0.8,1.7c-1.1,0.2-1.7,0.8-1.7,1.8
			c0.6,1.1,0.8,1.9,0.8,2.5c-6.6,4.8-23.8,14.1-51.6,27.8v0.9h1.8l29.5-14.4v1.7c-3.9,1.4-10.1,5.4-18.6,11.8
			c-11.6,5.1-19.2,9.6-22.8,13.5l41.4,19.5l16,8.4v0.8c0,1.1-1.7,1.7-5,1.7c4.5,3.8,6.8,6.1,6.8,6.8c-0.6,0-0.9,0.3-0.9,0.8
			c2.8,2.5,4.3,4.7,4.3,6.8l-1.7,0.8h-1.7c-2.2-1.7-3.9-2.5-5.1-2.5c0,1.1-0.6,1.7-1.7,1.7h-0.8c-24.4-13-48.9-24.6-73.6-34.7
			c-10.6-4.3-16.2-7.4-16.9-9.3v-0.8c1.7-2.9,20.3-13.3,55.8-31.3C166.3,157.9,178.7,152.6,181.7,152.6z M176.6,169.4
			c0,0.8-1.4,1.9-4.2,3.4h-0.8V172C172.1,170.3,173.8,169.4,176.6,169.4z"/>
		<path class="st2" d="M318.6,118.9h1.4c1,0.1,1.5,0.6,1.5,1.4l-0.7,8.5c0.9,0.1,1.4,0.6,1.4,1.4c1,0,3.4-0.7,7.1-2.1
			c0,0.5,0.2,0.7,0.6,0.7l-0.6,1.4l2.1,3.6c0,1.4-8.8,14.2-26.3,38.2c-33.2,46-64.4,93.9-93.6,144h-2.1v-0.7c0-0.4,0.2-2.3,0.7-5.7
			l-0.7-1.4c0.5-0.8,0.7-1.8,0.7-2.9c-2,0-5.1,1.9-9.3,5.7h-0.6v-0.6l2.8-4.3v-0.7l-0.6-1.4c1.4,0,2.5-1,3.5-2.9h-1.4
			c-2.2,2.4-3.9,3.6-5,3.6V304l4.3-11.3c-1.9-0.7-2.9-1.5-2.9-2.1c12.7-18.4,32.1-48.7,58.2-90.8l22.7-33.3
			c14.5-23.1,23.2-34.7,26.3-34.7l-0.7-1.5v-1.4C311.9,122.2,315.7,118.9,318.6,118.9z M204.5,289.8v0.7h0.6c0.6-1.9,2-4.3,4.3-7.1
			h-0.7C207.8,283.5,206.5,285.6,204.5,289.8z M205.1,299.7h2.1v-1.4h-0.7C205.6,298.4,205.1,298.9,205.1,299.7z M215.1,272.8
			c0,0.5-0.2,1.2-0.6,2.1v0.6h0.6c0-0.5,0.2-1.2,0.7-2.1v-0.6H215.1z M228.5,274.2c-8.5,13.7-12.7,21.3-12.7,22.7h0.6
			c9-12.4,13.5-19.7,13.5-22v-0.7H228.5z M230,273.4h0.6c1,0,1.5-0.5,1.5-1.4v-0.7C231.4,271.3,230.7,272,230,273.4z M271.8,198.3
			v1.4c0.6,0,1.8-1.2,3.5-3.5v-1.4C274.7,194.8,273.6,195.9,271.8,198.3z M276.7,193.4c5.7-6.5,9.7-12.4,12.1-17.7h1.4v-2.1
			c-2.7,1.9-6.2,6.6-10.6,14.1C278.4,187.6,277.4,189.5,276.7,193.4z"/>
		<path class="st2" d="M335.9,239.6h2.6c0,1.2-0.6,1.8-1.8,1.8h-0.8L335.9,239.6L335.9,239.6z M348.8,151.6
			c24.7,10.1,54.6,25,89.7,44.9c2.4,0.7,4.1,2.2,5.2,4.3v0.8c-4.5,4.2-12.9,8.2-25,12.1c-35.4,16.5-57.9,27.5-67.3,32.8h-2.6
			c0-1.2-0.3-1.8-0.8-1.8l-4.3,2.6H342c-1.2,0-1.8-0.6-1.8-1.8v-0.8c2.9-5.8,6.1-10,9.6-12.9c-3.5,0-5.2-0.6-5.2-1.8v-0.8
			c10.5-5.8,30-15.2,58.6-28.5V200c-3.2-2.7-13.3-8.4-30.2-17.3c0-0.6-4.3-3.8-13-9.5h0.9c1.9,0,10.8,4.3,26.7,12.9
			c1,0,2.4,0.6,4.3,1.8h0.9V187c-27.4-13.5-45-23-52.7-28.4v-0.9l1.8-2.6c-1.2,0-1.8-0.6-1.8-1.7v-0.9l8.6,2.6v-3.5L348.8,151.6
			L348.8,151.6z M351.4,168h0.9c5,2.3,7.6,4,7.7,5.2h-2.6c-4-2.3-6-3.8-6-4.4V168z"/>
	</g>
</g>
</svg>
