<?xml version="1.0" encoding="utf-8"?>
<!-- Generator: Adobe Illustrator 22.0.0, SVG Export Plug-In . SVG Version: 6.00 Build 0)  -->
<svg version="1.1" id="Capa_1" xmlns="http://www.w3.org/2000/svg" xmlns:xlink="http://www.w3.org/1999/xlink" x="0px" y="0px"
	 viewBox="0 0 696 696" style="enable-background:new 0 0 696 696;" xml:space="preserve">
<style type="text/css">
	.st0{fill:url(#SVGID_1_);}
	.st1{fill:#334251;}
	.st2{fill:url(#SVGID_2_);}
	.st3{fill:url(#SVGID_3_);}
	.st4{fill:url(#SVGID_4_);}
	.st5{fill:#EBEBEB;}
</style>
<g>
	<linearGradient id="SVGID_1_" gradientUnits="userSpaceOnUse" x1="575.1699" y1="445.8444" x2="167.4042" y2="181.0383">
		<stop  offset="0.5" style="stop-color:#334251"/>
		<stop  offset="0.5" style="stop-color:#425568"/>
	</linearGradient>
	<path class="st0" d="M349.5,198.7c20.7-49,67.9-83.2,122.8-83.2c74,0,127.2,63.3,133.9,138.7c0,0,3.6,18.7-4.3,52.4
		c-10.8,45.9-36.3,86.7-70.6,117.8L349.5,586.5L170.8,424.4c-34.3-31.1-59.8-71.9-70.6-117.8c-8-33.7-4.3-52.4-4.3-52.4
		c6.7-75.4,60-138.7,133.9-138.7C284.7,115.5,328.8,149.7,349.5,198.7z"/>
	<path class="st1" d="M156.4,280.1c-5.7,0-10.2-4.6-10.2-10.2c0-56.5,45.9-102.4,102.4-102.4c5.7,0,10.2,4.6,10.2,10.2
		s-4.6,10.2-10.2,10.2c-45.2,0-81.9,36.8-81.9,81.9C166.7,275.5,162.1,280.1,156.4,280.1z"/>
</g>
<g>
	<g>
		<linearGradient id="SVGID_2_" gradientUnits="userSpaceOnUse" x1="174.667" y1="312.9016" x2="654.6387" y2="312.9016">
			<stop  offset="0.5" style="stop-color:#334251"/>
			<stop  offset="0.5" style="stop-color:#425568"/>
		</linearGradient>
		<path class="st2" d="M276.4,266.4v0.8l-0.8,1.7h0.8c1.4,0,3.9-0.8,7.6-2.5l0.8,1.7c-1.1,0.2-1.7,0.8-1.7,1.8
			c0.6,1.1,0.8,1.9,0.8,2.5c-6.6,4.8-23.8,14.1-51.6,27.8v0.9h1.8l29.5-14.4v1.7c-3.9,1.4-10.1,5.4-18.6,11.8
			c-11.6,5.1-19.2,9.6-22.8,13.5l41.4,19.5l16,8.4v0.8c0,1.1-1.7,1.7-5,1.7c4.5,3.8,6.8,6.1,6.8,6.8c-0.6,0-0.9,0.3-0.9,0.8
			c2.8,2.5,4.3,4.7,4.3,6.8l-1.7,0.8h-1.7c-2.2-1.7-3.9-2.5-5.1-2.5c0,1.1-0.6,1.7-1.7,1.7h-0.8c-24.4-13-48.9-24.6-73.6-34.7
			c-10.6-4.3-16.2-7.4-16.9-9.3v-0.8c1.7-2.9,20.3-13.3,55.8-31.3C261.1,271.8,273.5,266.4,276.4,266.4z M271.3,283.3
			c0,0.8-1.4,1.9-4.2,3.4h-0.8v-0.8C266.9,284.2,268.6,283.3,271.3,283.3z"/>
		<linearGradient id="SVGID_3_" gradientUnits="userSpaceOnUse" x1="174.667" y1="331.3171" x2="654.6387" y2="331.3171">
			<stop  offset="0.5" style="stop-color:#334251"/>
			<stop  offset="0.5" style="stop-color:#425568"/>
		</linearGradient>
		<path class="st3" d="M413.4,232.7h1.4c1,0.1,1.5,0.6,1.5,1.4l-0.7,8.5c0.9,0.1,1.4,0.6,1.4,1.4c1,0,3.4-0.7,7.1-2.1
			c0,0.5,0.2,0.7,0.6,0.7l-0.6,1.4l2.1,3.6c0,1.4-8.8,14.2-26.3,38.2c-33.2,46-64.4,93.9-93.6,144h-2.1v-0.7c0-0.4,0.2-2.3,0.7-5.7
			l-0.7-1.4c0.5-0.8,0.7-1.8,0.7-2.9c-2,0-5.1,1.9-9.3,5.7H295v-0.6l2.8-4.3v-0.7l-0.6-1.4c1.4,0,2.5-1,3.5-2.9h-1.4
			c-2.2,2.4-3.9,3.6-5,3.6v-0.7l4.3-11.3c-1.9-0.7-2.9-1.5-2.9-2.1c12.7-18.4,32.1-48.7,58.2-90.8l22.7-33.3
			c14.5-23.1,23.2-34.7,26.3-34.7l-0.7-1.5v-1.4C406.7,236.1,410.5,232.7,413.4,232.7z M299.3,403.6v0.7h0.6c0.6-1.9,2-4.3,4.3-7.1
			h-0.7C302.6,397.4,301.2,399.5,299.3,403.6z M299.9,413.6h2.1v-1.4h-0.7C300.4,412.3,299.9,412.8,299.9,413.6z M309.8,386.7
			c0,0.5-0.2,1.2-0.6,2.1v0.6h0.6c0-0.5,0.2-1.2,0.7-2.1v-0.6H309.8z M323.3,388c-8.5,13.7-12.7,21.3-12.7,22.7h0.6
			c9-12.4,13.5-19.7,13.5-22V388H323.3z M324.8,387.3h0.6c1,0,1.5-0.5,1.5-1.4v-0.7C326.2,385.2,325.5,385.9,324.8,387.3z
			 M366.6,312.2v1.4c0.6,0,1.8-1.2,3.5-3.5v-1.4C369.5,308.6,368.3,309.8,366.6,312.2z M371.5,307.2c5.7-6.5,9.7-12.4,12.1-17.7h1.4
			v-2.1c-2.7,1.9-6.2,6.6-10.6,14.1C373.2,301.5,372.2,303.4,371.5,307.2z"/>
		<linearGradient id="SVGID_4_" gradientUnits="userSpaceOnUse" x1="174.667" y1="313.3655" x2="654.6387" y2="313.3655">
			<stop  offset="0.5" style="stop-color:#334251"/>
			<stop  offset="0.5" style="stop-color:#425568"/>
		</linearGradient>
		<path class="st4" d="M430.7,353.4h2.6c0,1.2-0.6,1.8-1.8,1.8h-0.8V353.4z M443.6,265.5c24.7,10.1,54.6,25,89.7,44.9
			c2.4,0.7,4.1,2.2,5.2,4.3v0.8c-4.5,4.2-12.9,8.2-25,12.1c-35.4,16.5-57.9,27.5-67.3,32.8h-2.6c0-1.2-0.3-1.8-0.8-1.8l-4.3,2.6
			h-1.8c-1.2,0-1.8-0.6-1.8-1.8v-0.8c2.9-5.8,6.1-10,9.6-12.9c-3.5,0-5.2-0.6-5.2-1.8v-0.8c10.5-5.8,30-15.2,58.6-28.5v-0.8
			c-3.2-2.7-13.3-8.4-30.2-17.3c0-0.6-4.3-3.8-13-9.5h0.9c1.9,0,10.8,4.3,26.7,12.9c1,0,2.4,0.6,4.3,1.8h0.9v-0.9
			c-27.4-13.5-45-23-52.7-28.4v-0.9l1.8-2.6c-1.2,0-1.8-0.6-1.8-1.7v-0.9l8.6,2.6V265.5z M446.2,281.9h0.9c5,2.3,7.6,4,7.7,5.2h-2.6
			c-4-2.3-6-3.8-6-4.4V281.9z"/>
	</g>
	<g>
		<path class="st5" d="M276.4,266.4v0.8l-0.8,1.7h0.8c1.4,0,3.9-0.8,7.6-2.5l0.8,1.7c-1.1,0.2-1.7,0.8-1.7,1.8
			c0.6,1.1,0.8,1.9,0.8,2.5c-6.6,4.8-23.8,14.1-51.6,27.8v0.9h1.8l29.5-14.4v1.7c-3.9,1.4-10.1,5.4-18.6,11.8
			c-11.6,5.1-19.2,9.6-22.8,13.5l41.4,19.5l16,8.4v0.8c0,1.1-1.7,1.7-5,1.7c4.5,3.8,6.8,6.1,6.8,6.8c-0.6,0-0.9,0.3-0.9,0.8
			c2.8,2.5,4.3,4.7,4.3,6.8l-1.7,0.8h-1.7c-2.2-1.7-3.9-2.5-5.1-2.5c0,1.1-0.6,1.7-1.7,1.7h-0.8c-24.4-13-48.9-24.6-73.6-34.7
			c-10.6-4.3-16.2-7.4-16.9-9.3v-0.8c1.7-2.9,20.3-13.3,55.8-31.3C261.1,271.8,273.5,266.4,276.4,266.4z M271.3,283.3
			c0,0.8-1.4,1.9-4.2,3.4h-0.8v-0.8C266.9,284.2,268.6,283.3,271.3,283.3z"/>
		<path class="st5" d="M413.4,232.7h1.4c1,0.1,1.5,0.6,1.5,1.4l-0.7,8.5c0.9,0.1,1.4,0.6,1.4,1.4c1,0,3.4-0.7,7.1-2.1
			c0,0.5,0.2,0.7,0.6,0.7l-0.6,1.4l2.1,3.6c0,1.4-8.8,14.2-26.3,38.2c-33.2,46-64.4,93.9-93.6,144h-2.1v-0.7c0-0.4,0.2-2.3,0.7-5.7
			l-0.7-1.4c0.5-0.8,0.7-1.8,0.7-2.9c-2,0-5.1,1.9-9.3,5.7H295v-0.6l2.8-4.3v-0.7l-0.6-1.4c1.4,0,2.5-1,3.5-2.9h-1.4
			c-2.2,2.4-3.9,3.6-5,3.6v-0.7l4.3-11.3c-1.9-0.7-2.9-1.5-2.9-2.1c12.7-18.4,32.1-48.7,58.2-90.8l22.7-33.3
			c14.5-23.1,23.2-34.7,26.3-34.7l-0.7-1.5v-1.4C406.7,236.1,410.5,232.7,413.4,232.7z M299.3,403.6v0.7h0.6c0.6-1.9,2-4.3,4.3-7.1
			h-0.7C302.6,397.4,301.2,399.5,299.3,403.6z M299.9,413.6h2.1v-1.4h-0.7C300.4,412.3,299.9,412.8,299.9,413.6z M309.8,386.7
			c0,0.5-0.2,1.2-0.6,2.1v0.6h0.6c0-0.5,0.2-1.2,0.7-2.1v-0.6H309.8z M323.3,388c-8.5,13.7-12.7,21.3-12.7,22.7h0.6
			c9-12.4,13.5-19.7,13.5-22V388H323.3z M324.8,387.3h0.6c1,0,1.5-0.5,1.5-1.4v-0.7C326.2,385.2,325.5,385.9,324.8,387.3z
			 M366.6,312.2v1.4c0.6,0,1.8-1.2,3.5-3.5v-1.4C369.5,308.6,368.3,309.8,366.6,312.2z M371.5,307.2c5.7-6.5,9.7-12.4,12.1-17.7h1.4
			v-2.1c-2.7,1.9-6.2,6.6-10.6,14.1C373.2,301.5,372.2,303.4,371.5,307.2z"/>
		<path class="st5" d="M430.7,353.4h2.6c0,1.2-0.6,1.8-1.8,1.8h-0.8V353.4z M443.6,265.5c24.7,10.1,54.6,25,89.7,44.9
			c2.4,0.7,4.1,2.2,5.2,4.3v0.8c-4.5,4.2-12.9,8.2-25,12.1c-35.4,16.5-57.9,27.5-67.3,32.8h-2.6c0-1.2-0.3-1.8-0.8-1.8l-4.3,2.6
			h-1.8c-1.2,0-1.8-0.6-1.8-1.8v-0.8c2.9-5.8,6.1-10,9.6-12.9c-3.5,0-5.2-0.6-5.2-1.8v-0.8c10.5-5.8,30-15.2,58.6-28.5v-0.8
			c-3.2-2.7-13.3-8.4-30.2-17.3c0-0.6-4.3-3.8-13-9.5h0.9c1.9,0,10.8,4.3,26.7,12.9c1,0,2.4,0.6,4.3,1.8h0.9v-0.9
			c-27.4-13.5-45-23-52.7-28.4v-0.9l1.8-2.6c-1.2,0-1.8-0.6-1.8-1.7v-0.9l8.6,2.6V265.5z M446.2,281.9h0.9c5,2.3,7.6,4,7.7,5.2h-2.6
			c-4-2.3-6-3.8-6-4.4V281.9z"/>
	</g>
</g>
</svg>
